P3
2 14
255
127 63 63 0 0 63 
127 63 63 0 0 63 
127 63 63 0 0 63 
127 63 63 0 0 63 
127 63 63 0 0 63 
127 63 63 0 0 63 
127 63 63 0 0 63 
127 63 63 0 0 63 
127 63 63 0 0 63 
127 63 63 0 0 63 
127 63 63 0 0 63 
127 63 63 0 0 63 
127 63 63 0 0 63 
127 127 63 0 0 0 
